<svg width="21" height="18" viewBox="0 0 21 18" fill="none" xmlns="http://www.w3.org/2000/svg">
<path d="M15.0692 5.15753L15.0701 5.1567C15.115 5.11251 15.1731 5.07293 15.2432 5.04439C15.3134 5.01579 15.3917 5 15.4727 5C15.5537 5 15.6319 5.01579 15.7021 5.04439C15.7722 5.07293 15.8303 5.11251 15.8753 5.1567L19.3801 1.59191L15.8769 5.15835C15.9217 5.20235 15.9525 5.24985 15.9719 5.29584C15.9912 5.34163 16 5.38759 16 5.43187C16 5.47614 15.9912 5.5221 15.9719 5.5679C15.9525 5.61388 15.9217 5.66139 15.8769 5.70539L15.8761 5.70621L14.8112 6.75273L10.4997 10.9897L6.18828 6.75273L5.12336 5.70621C5.03395 5.61834 5 5.51788 5 5.43187C5 5.34586 5.03395 5.24539 5.12336 5.15753C5.21573 5.06676 5.35924 5.00053 5.52679 5.00053C5.69434 5.00053 5.83785 5.06676 5.93021 5.15753L6.99513 6.20405C8.94046 8.11579 12.059 8.11579 14.0043 6.20405L15.0692 5.15753Z" stroke="white" stroke-width="10" stroke-linecap="round" stroke-linejoin="round"/>
</svg>
