<svg width="976" height="976" viewBox="0 0 976 976" fill="none" xmlns="http://www.w3.org/2000/svg">
<path d="M251.578 740.778L273.483 759.8L331.897 685.104L358.184 707.104L496.918 524.681L619.59 740.778L653.178 703.662L714.514 804.37H200.465L251.578 740.778Z" fill="#FBF8FD"/>
<path d="M732.937 804.37H182.042" stroke="black" stroke-width="1.5"/>
<path d="M395.527 454.473C395.527 454.473 517.226 546.5 500.538 591.004C483.849 635.507 400.405 680.01 400.405 680.01L395.527 705.6L347.98 653.308L395.527 569.865C395.527 569.865 354.523 558.739 347.98 538.712C341.438 518.686 326.059 427.051 326.059 427.051" fill="#FFD31D"/>
<path d="M348.748 261.329C355.44 261.329 360.864 255.904 360.864 249.212C360.864 242.521 355.44 237.096 348.748 237.096C342.056 237.096 336.632 242.521 336.632 249.212C336.632 255.904 342.056 261.329 348.748 261.329Z" fill="#FFD31D"/>
<path d="M375.733 429.422C375.733 429.422 390.707 673.822 348.415 789.536L357.249 802.516H282.027C282.027 802.516 273.81 491.653 273.81 424.557L375.733 429.422Z" fill="#FFD31D"/>
<path d="M354.816 240.327V272.089L315.469 281.76V228.16L354.816 218.489V240.327Z" fill="#EDEEEF"/>
<path d="M332.589 251.316C333.17 251.316 333.641 250.845 333.641 250.264C333.641 249.683 333.17 249.212 332.589 249.212C332.008 249.212 331.537 249.683 331.537 250.264C331.537 250.845 332.008 251.316 332.589 251.316Z" fill="black"/>
<path d="M348.748 251.316C349.329 251.316 349.8 250.845 349.8 250.264C349.8 249.683 349.329 249.212 348.748 249.212C348.167 249.212 347.696 249.683 347.696 250.264C347.696 250.845 348.167 251.316 348.748 251.316Z" fill="black"/>
<path d="M344.008 256.54V240.327H352.13" stroke="black" stroke-width="1.5"/>
<path d="M330.607 240.327H338.73" stroke="black" stroke-width="1.5"/>
<path d="M318.061 248.634V254.265C315.024 254.265 312.562 251.803 312.562 248.766C312.562 248.597 312.569 248.43 312.584 248.265C312.892 244.85 318.061 245.206 318.061 248.634Z" fill="#EDEEEF"/>
<path d="M318.061 254.265C315.024 254.265 312.562 251.803 312.562 248.766" stroke="black" stroke-width="1.5"/>
<path d="M340.455 260.537C337.381 260.537 334.889 258.045 334.889 254.971" stroke="#FFD31D" stroke-width="1.5" stroke-linecap="round" stroke-linejoin="round"/>
<path d="M354.816 272.089L315.469 281.76" stroke="black" stroke-width="1.5"/>
<path d="M344.007 256.553L340.455 257.426" stroke="black" stroke-width="1.5" stroke-linecap="round"/>
<path d="M318.872 247.233C318.872 247.233 323.199 244.184 322.457 237.673C321.715 231.162 322.447 225.149 332.589 223.952C339.973 223.195 347.393 222.836 354.816 222.879" stroke="black" stroke-width="1.5"/>
<path d="M354.816 237.673C354.816 237.673 374.411 202.357 336.844 194.939C299.277 187.521 287.056 211.474 289.449 229.987C292.045 250.07 304.827 255.949 315.311 259.287" stroke="black" stroke-width="1.5"/>
<path d="M273.81 338.637V424.557L395.527 454.473V358.782C395.527 324.851 372.363 295.304 339.413 287.206H339.413C323.611 283.322 306.901 286.917 294.095 296.957C281.29 306.996 273.81 322.365 273.81 338.637L273.81 338.637Z" fill="#FBF8FD"/>
<path d="M310.652 261.329C317.344 261.329 322.768 255.904 322.768 249.212C322.768 242.521 317.344 237.096 310.652 237.096C303.96 237.096 298.536 242.521 298.536 249.212C298.536 255.904 303.96 261.329 310.652 261.329Z" fill="#FFD31D"/>
<path d="M322.768 249.212C322.762 255.9 317.339 261.318 310.652 261.318C303.964 261.318 298.541 255.9 298.536 249.212" stroke="black" stroke-width="1.5"/>
<path d="M375.733 429.422C375.733 429.422 390.707 673.822 348.415 789.537" stroke="black" stroke-width="1.5"/>
<path d="M291.585 299.057C291.585 299.057 259.037 321.78 253.103 381.121C247.169 440.462 321.345 492.385 399.971 406.341C399.971 406.341 422.966 389.28 423.707 375.187C424.449 361.093 395.527 378.273 395.527 378.273C395.527 378.273 403.693 373.703 395.527 372.961C387.361 372.22 385.878 380.626 385.878 380.626L315.469 392.618L326.058 348.112" stroke="black" stroke-width="1.5"/>
<path d="M274.553 436.443V483.478C330.124 496.453 361.888 438.171 361.888 438.171H361.888C326.305 459.112 294.514 453.909 274.553 436.443Z" fill="black"/>
<path d="M395.527 372.961C399.193 373.294 399.564 374.399 398.863 375.515L399.982 375.836C404.051 373.738 410.178 370.903 415.189 369.957L417.773 346.751H394.541L391.548 373.416C392.824 372.97 394.183 372.815 395.527 372.961Z" fill="black"/>
<path d="M309.477 261.329C309.477 261.329 299.092 322.522 329.257 318.071C359.422 313.621 403.921 302.989 399.724 347.742" stroke="black" stroke-width="1.5"/>
<path d="M353.394 292.178C353.394 292.178 419.01 314.61 428.405 318.566C428.405 318.566 427.939 264.916 423.721 261.329C419.504 257.741 411.592 244.177 419.999 240.327C419.999 240.327 413.075 222.624 417.773 222.875C422.471 223.126 423.46 230.543 430.383 232.027C437.306 233.51 510.493 338.84 472.416 370.061C445.549 392.091 417.773 388.792 417.773 388.792" stroke="black" stroke-width="1.5"/>
<path d="M395.116 425.073L778.726 334.812" stroke="black" stroke-width="1.5"/>
<path d="M395.116 470.204L778.726 379.943" stroke="black" stroke-width="1.5"/>
<path d="M395.116 515.334L778.726 425.073" stroke="black" stroke-width="1.5"/>
<path d="M395.116 560.465L778.726 470.204" stroke="black" stroke-width="1.5"/>
<path d="M395.116 605.596L778.726 515.334" stroke="black" stroke-width="1.5"/>
</svg>
