<svg width="780" height="780" viewBox="0 0 780 780" fill="none" xmlns="http://www.w3.org/2000/svg">
<path d="M313.645 405.929L433.749 513.511L487.056 729.355L573.954 708.331L559.399 692.871C559.399 692.871 556.056 368.27 415.035 316.149" fill="#E2E2E2"/>
<rect x="247.297" y="403.195" width="135.493" height="48.5907" rx="24.2953" fill="#FFD31D"/>
<path d="M358.495 451.786H271.592" stroke="black" stroke-width="1.5" stroke-linecap="round" stroke-linejoin="round"/>
<path d="M322.037 50.9932V91.0057L371.604 103.189V35.6656L322.037 23.4824V50.9932Z" fill="#EDEEEF"/>
<path d="M327.728 71.3065C327.287 71.8557 327.168 72.5963 327.414 73.256C327.661 73.9157 328.236 74.3972 328.928 74.5234C331.702 75.4888 336.655 70.383 340.026 73.8655C340.026 73.8655 341.359 69.656 350.334 73.3061C359.309 76.9561 356.835 70.4647 356.835 70.4647" stroke="#FFD31D" stroke-width="1.5" stroke-linecap="round" stroke-linejoin="round"/>
<path d="M350.037 64.837C350.769 64.837 351.363 64.2436 351.363 63.5117C351.363 62.7797 350.769 62.1863 350.037 62.1863C349.305 62.1863 348.712 62.7797 348.712 63.5117C348.712 64.2436 349.305 64.837 350.037 64.837Z" fill="black"/>
<path d="M329.681 64.837C330.413 64.837 331.007 64.2436 331.007 63.5117C331.007 62.7797 330.413 62.1863 329.681 62.1863C328.949 62.1863 328.356 62.7797 328.356 63.5117C328.356 64.2436 328.949 64.837 329.681 64.837Z" fill="black"/>
<path d="M335.653 71.4181V50.9932H325.421" stroke="black" stroke-width="1.5" stroke-linecap="round" stroke-linejoin="round"/>
<path d="M352.534 50.9935H342.302" stroke="black" stroke-width="1.5" stroke-linecap="round" stroke-linejoin="round"/>
<path d="M368.34 61.4584V68.5511C372.166 68.5511 375.267 65.4496 375.267 61.6236C375.267 61.4111 375.258 61.2009 375.239 60.9931C374.851 56.6913 368.34 57.1392 368.34 61.4584Z" fill="#EDEEEF"/>
<path d="M368.34 68.5511C372.166 68.5511 375.267 65.4496 375.267 61.6236" stroke="black" stroke-width="1.5" stroke-linecap="round" stroke-linejoin="round"/>
<path d="M355.708 99.2815L371.604 103.189" stroke="black" stroke-width="1.5" stroke-linecap="round" stroke-linejoin="round"/>
<path d="M335.653 71.4341L340.128 72.534" stroke="black" stroke-width="1.5" stroke-linecap="round" stroke-linejoin="round"/>
<path d="M322.037 66.954C322.037 66.954 310.52 91.5609 328.356 99.3478C346.191 107.135 371.644 87.4825 368.34 64.837" stroke="#FFD31D" stroke-width="1.5" stroke-linecap="round" stroke-linejoin="round"/>
<path d="M320.183 40.0111C320.183 40.0111 324.139 47.3446 337.891 47.6492V43.1259C343.987 46.8635 351.035 48.7566 358.184 48.5768V44.9948C358.184 44.9948 366.749 54.6154 359.897 62.1863" stroke="#FFD31D" stroke-width="1.5" stroke-linecap="round" stroke-linejoin="round"/>
<path d="M341.063 79.32C343.938 79.32 346.27 76.989 346.27 74.1135" stroke="#FFD31D" stroke-width="1.5" stroke-linecap="round" stroke-linejoin="round"/>
<path d="M322.037 60.0236C322.037 60.0236 302.011 25.4495 323.829 21.2445C345.646 17.0396 360.597 26.8511 360.597 26.8511C360.597 26.8511 393.591 33.5442 371.604 57.9971" stroke="#FFD31D" stroke-width="1.5" stroke-linecap="round" stroke-linejoin="round"/>
<path d="M280.481 174.84V283.078L433.815 320.765V200.217C433.815 157.473 404.634 120.251 363.125 110.049H363.125C343.218 105.156 322.168 109.686 306.036 122.333C289.904 134.98 280.481 154.341 280.481 174.84V174.84Z" fill="#FFD31D"/>
<path d="M280.481 283.078C280.481 283.078 253.838 467.671 450.07 438.24L451.004 593.401H545.923L531.366 580.738C531.366 580.738 615.465 348.998 433.815 320.765" fill="#EDEEEF"/>
<path d="M451.004 593.401H545.923" stroke="black" stroke-width="1.5" stroke-linecap="round" stroke-linejoin="round"/>
<path d="M280.481 283.078C280.481 283.078 253.838 467.671 450.07 438.24L451.004 593.401" stroke="black" stroke-width="1.5" stroke-linecap="round" stroke-linejoin="round"/>
<path d="M206.617 759.214H433.749" stroke="black" stroke-width="1.5" stroke-linecap="round" stroke-linejoin="round"/>
<path d="M315.044 451.786V759.214" stroke="black" stroke-width="1.5" stroke-linecap="round" stroke-linejoin="round"/>
<path d="M313.644 117.165C313.644 117.165 250.1 153.701 258.199 241.538C266.297 329.375 405.758 274.555 443.799 247.144C443.799 247.144 464.394 232.072 459.411 207.478L471.363 199.409L468.135 192.324L325.421 214.427L331.006 179.865" stroke="black" stroke-width="1.5" stroke-linecap="round" stroke-linejoin="round"/>
<path d="M286.287 283.758C297.444 300.961 330.023 308.341 365.184 300.272C396.805 293.014 421.091 275.422 427.509 257.154C390.931 277.019 324.256 300.206 286.287 283.758Z" fill="black"/>
<path d="M383.645 117.749L478.103 161.176C478.103 161.176 499.906 75.0656 525.447 70.4647C550.989 65.8639 550.805 68.5511 550.805 68.5511L549.356 75.3095L537.211 79.32C537.211 79.32 542.89 107.329 527.939 108.088C527.939 108.088 574.366 277.623 431.545 254.908" stroke="black" stroke-width="1.5" stroke-linecap="round" stroke-linejoin="round"/>
</svg>
