<svg width="24" height="24" viewBox="0 0 24 24" fill="none" xmlns="http://www.w3.org/2000/svg">
<path d="M21.9828 12.5405C21.9262 12.5405 21.8696 12.5405 21.8131 12.5405C21.4549 8.14341 18.4195 4.51535 14.4227 3.45059V5.52095C17.6277 6.60543 19.9655 9.74054 19.9655 13.4672V14.5714C19.9655 14.5911 19.9655 14.6305 19.9655 14.6503V18.0811C19.9655 19.2445 20.8704 20.1909 21.9828 20.1909C23.0951 20.1909 24 19.2445 24 18.0811V14.6503C24 13.4869 23.0951 12.5405 21.9828 12.5405Z" fill="#FFF2DF"/>
<path d="M2.18696 12.5602C2.1304 12.5602 2.07384 12.5602 2.01728 12.5602C0.904949 12.5405 0 13.4869 0 14.6502V18.0811C0 19.2445 0.904949 20.1909 2.01728 20.1909C3.12961 20.1909 4.03456 19.2445 4.03456 18.0811V14.6502V13.4672C4.03456 9.76026 6.37235 6.60542 9.57738 5.52095V3.47031C5.58052 4.53506 2.54517 8.1434 2.18696 12.5602Z" fill="#FFF2DF"/>
<path d="M14.4226 6.92093V10.6673C14.4226 12.0673 13.3291 13.2109 11.9906 13.2109C10.652 13.2109 9.55852 12.0673 9.55852 10.6673V6.92093C7.05105 7.94625 5.26001 10.4898 5.26001 13.4869V21.0585C5.26001 22.1036 5.69363 23.1092 6.46661 23.7796C6.88138 24.1345 7.50353 23.8387 7.50353 23.2866V16.7798C7.50353 16.0108 8.10683 15.3798 8.8421 15.3798H10.0487C10.4446 15.3798 10.7463 15.715 10.7463 16.1094V19.067C10.7463 19.7374 11.2553 20.2698 11.8963 20.2698C12.5373 20.2698 13.0463 19.7374 13.0463 19.067V16.1094C13.0463 15.6953 13.3668 15.3798 13.7439 15.3798H14.9505C15.6858 15.3798 16.2891 16.0108 16.2891 16.7798V23.3458C16.2891 23.8979 16.8924 24.1936 17.3071 23.8584L17.4014 23.7796C18.2309 23.1092 18.7211 22.0641 18.7211 20.9797V13.4869C18.7211 10.4898 16.9489 7.94625 14.4226 6.92093Z" fill="#FFD31D"/>
<path d="M11.9905 11.8503C11.2175 11.8503 10.5954 11.1997 10.5954 10.3912V1.45911C10.5954 0.650684 11.2175 0 11.9905 0C12.7635 0 13.3857 0.650684 13.3857 1.45911V10.3715C13.4045 11.1997 12.7635 11.8503 11.9905 11.8503Z" fill="#FFD31D"/>
</svg>
